<?xml version="1.0" encoding="UTF-8"?><svg id="Layer_1" xmlns="http://www.w3.org/2000/svg" viewBox="0 0 22 21.02"><path d="M21.95,7.96c-.13-.41-.52-.69-.95-.69h-6.91L11.95,.69c-.13-.41-.52-.69-.95-.69s-.82,.28-.95,.69l-2.14,6.57H1c-.43,0-.82,.28-.95,.69-.13,.41,.01,.86,.36,1.12l5.59,4.06-2.14,6.58c-.13,.41,.01,.86,.36,1.12,.35,.26,.82,.26,1.18,0l5.59-4.06,5.59,4.06c.18,.13,.38,.19,.59,.19s.41-.06,.59-.19c.35-.25,.5-.71,.36-1.12l-2.14-6.58,5.59-4.06c.35-.25,.5-.71,.36-1.12Zm-7.72,3.99c-.35,.25-.5,.71-.36,1.12l1.41,4.34-3.69-2.68c-.18-.13-.38-.19-.59-.19s-.41,.06-.59,.19l-3.69,2.68,1.41-4.34c.13-.41-.01-.86-.36-1.12l-3.69-2.68h4.56c.43,0,.82-.28,.95-.69l1.41-4.34,1.41,4.34c.13,.41,.52,.69,.95,.69h4.56l-3.69,2.68Z"/></svg>