<?xml version="1.0" encoding="UTF-8"?><svg id="Layer_1" xmlns="http://www.w3.org/2000/svg" viewBox="0 0 20 18"><path d="M19.71,9.29l-2-2h0S10.71,.29,10.71,.29c-.39-.39-1.02-.39-1.41,0L2.29,7.29h0S.29,9.29,.29,9.29c-.39,.39-.39,1.02,0,1.41s1.02,.39,1.41,0l.29-.29v6.59c0,.55,.45,1,1,1H7.54c.55,0,1-.45,1-1v-5.22l1.46-1.48,1.46,1.48v5.22c0,.55,.45,1,1,1h4.54c.55,0,1-.45,1-1v-6.59l.29,.29c.2,.2,.45,.29,.71,.29s.51-.1,.71-.29c.39-.39,.39-1.02,0-1.41Zm-3.71,6.71h-2.54v-4.62c0-.26-.1-.51-.29-.7l-2.46-2.5c-.38-.38-1.05-.38-1.43,0l-2.46,2.5c-.18,.19-.29,.44-.29,.7v4.62H4v-7.59L10,2.41l6,6v7.59Z"/></svg>