<?xml version="1.0" encoding="UTF-8"?><svg id="Layer_1" xmlns="http://www.w3.org/2000/svg" viewBox="0 0 20 16"><path d="M19.69,3.7L16.14,.28c-.19-.18-.43-.28-.69-.28H4.55c-.26,0-.51,.1-.69,.28L.31,3.7c-.2,.19-.31,.45-.31,.72V15c0,.55,.45,1,1,1H19c.55,0,1-.45,1-1V4.42c0-.27-.11-.53-.31-.72ZM4.96,2H15.05l2.6,2.5h-2.64c-.26,0-.52,.1-.7,.29l-2.75,2.71h-3.1l-2.75-2.71c-.19-.18-.44-.29-.7-.29H2.36l2.6-2.5ZM2,14V6.5h2.59l2.75,2.71c.19,.18,.44,.29,.7,.29h3.92c.26,0,.52-.1,.7-.29l2.75-2.71h2.59v7.5H2Z"/></svg>