<?xml version="1.0" encoding="UTF-8"?><svg id="Layer_1" xmlns="http://www.w3.org/2000/svg" viewBox="0 0 20 20"><path d="M10.73,20h-1.45c-1,0-1.82-.82-1.82-1.82v-1.38c-.16-.06-.31-.12-.47-.19l-.97,.97c-.69,.69-1.89,.69-2.57,0l-1.03-1.03c-.71-.71-.71-1.86,0-2.57l.97-.97c-.07-.15-.13-.31-.19-.47H1.82c-1,0-1.82-.82-1.82-1.82v-1.45c0-1,.82-1.82,1.82-1.82h1.37c.06-.16,.12-.32,.19-.47l-.97-.97c-.71-.71-.71-1.86,0-2.57l1.03-1.03c.68-.69,1.88-.69,2.57,0l.97,.97c.15-.07,.31-.13,.47-.19V1.82c0-1,.82-1.82,1.82-1.82h1.45c1,0,1.82,.82,1.82,1.82v1.38c.16,.06,.31,.12,.47,.19l.97-.97c.71-.71,1.86-.71,2.57,0l1.03,1.03c.71,.71,.71,1.86,0,2.57l-.97,.97c.07,.15,.13,.31,.19,.47h1.38c1,0,1.82,.82,1.82,1.82v1.45c0,1-.82,1.82-1.82,1.82h-1.38c-.06,.16-.12,.31-.19,.47l.97,.97c.71,.71,.71,1.86,0,2.57l-1.03,1.03c-.71,.71-1.86,.71-2.57,0l-.97-.97c-.15,.07-.31,.13-.47,.19v1.38c0,1-.82,1.82-1.82,1.82Zm-3.91-5.41c.16,0,.31,.04,.46,.12,.41,.24,.86,.42,1.33,.55,.4,.11,.68,.47,.68,.88v2.04h1.45v-2.04c0-.41,.28-.77,.68-.88,.47-.12,.92-.31,1.33-.55,.36-.21,.81-.15,1.1,.14l1.44,1.44,1.03-1.03-1.44-1.44c-.29-.29-.35-.74-.14-1.1,.24-.41,.42-.86,.55-1.33,.11-.4,.47-.68,.88-.68h2.04v-1.45h-2.04c-.41,0-.77-.28-.88-.68-.12-.47-.31-.92-.55-1.33-.21-.36-.15-.81,.14-1.1l1.44-1.44-1.03-1.03-1.44,1.44c-.29,.29-.74,.35-1.1,.14-.41-.24-.86-.42-1.33-.55-.4-.11-.68-.47-.68-.88V1.82h-1.45V3.86c0,.41-.28,.77-.68,.88-.47,.12-.92,.31-1.33,.55-.36,.21-.81,.15-1.1-.14l-1.44-1.44-1.03,1.03,1.44,1.44c.29,.29,.35,.74,.14,1.1-.24,.41-.42,.86-.55,1.33-.11,.4-.47,.68-.88,.68H1.82v1.45H3.86c.41,0,.77,.28,.88,.68,.12,.47,.31,.92,.55,1.33,.21,.36,.15,.81-.14,1.1l-1.44,1.44,1.03,1.03,1.44-1.44c.17-.17,.41-.27,.64-.27Zm3.19-.96c-2.01,0-3.64-1.63-3.64-3.64s1.63-3.64,3.64-3.64,3.64,1.63,3.64,3.64-1.63,3.64-3.64,3.64Zm0-5.45c-1,0-1.82,.82-1.82,1.82s.82,1.82,1.82,1.82,1.82-.82,1.82-1.82-.82-1.82-1.82-1.82Z"/></svg>