<svg version="1.1" id="Layer_1" xmlns="http://www.w3.org/2000/svg" xmlns:xlink="http://www.w3.org/1999/xlink" x="0px" y="0px"
	 viewBox="0 0 24 24" enable-background="new 0 0 24 24" xml:space="preserve">
<path class="aw-theme-iconOutline" fill="#464646" d="M21.6,11h-0.1H20c-0.9,0-5.7-1.9-6.4-7c-0.1-1-0.5-1.7-1.2-1.9c-0.6-0.2-1.4,0-2,0.7c-1,1.1-1.6,3.6-0.2,7.2H3
	c-1.1,0-2,0.9-2,2c0,0.6,0.3,1.1,0.7,1.5C1.3,13.9,1,14.4,1,15c0,0.9,0.6,1.6,1.3,1.9C2.1,17.2,2,17.6,2,18c0,1.1,0.9,2,2,2h0.2
	C4.1,20.2,4,20.5,4,20.7c0,0.9,0.7,1.6,1.7,1.7c0,0,1.9,0.1,4.1,0.1c2.9,0,6.6-0.2,8.2-1.2c0.5-0.3,1.2-0.5,1.9-0.5h1.6h0.1
	c0.4-0.1,1.4-0.8,1.4-5S22,11.1,21.6,11z"/>
</svg>
