<?xml version="1.0" encoding="UTF-8"?><svg id="Layer_1" xmlns="http://www.w3.org/2000/svg" viewBox="0 0 18 18"><path d="M9,2c3.86,0,7,3.14,7,7s-3.14,7-7,7-7-3.14-7-7S5.14,2,9,2m0-2C4.03,0,0,4.03,0,9s4.03,9,9,9,9-4.03,9-9S13.97,0,9,0h0Z"/><g><circle cx="9" cy="13.15" r=".87"/><path d="M9,4.03c-1.45,0-2.62,1.18-2.62,2.62,0,.48,.39,.87,.87,.87s.87-.39,.87-.87,.39-.87,.87-.87,.87,.39,.87,.87-.39,.87-.87,.87-.87,.39-.87,.87v2.57c0,.48,.39,.87,.87,.87s.87-.39,.87-.87v-1.85c1.02-.36,1.75-1.33,1.75-2.47,0-1.45-1.18-2.62-2.62-2.62Z"/></g></svg>