<svg id="Layer_1" data-name="Layer 1" xmlns="http://www.w3.org/2000/svg" viewBox="0 0 16 16">
  <path d="M13.9924,13.2853A7.9868,7.9868,0,0,0,2.7176,2.0106L.8535.1465a.5.5,0,0,0-.707.707L2.0107,2.7177A7.9869,7.9869,0,0,0,13.2852,13.9922l1.8613,1.8613a.5.5,0,0,0,.707-.707Z" fill="#464646"/>
  <path d="M8.0029,1A6.9635,6.9635,0,0,0,3.4243,2.7173L5.0029,4.2959V3.1382l1.6162.9238L6.123,4.93l-.12-.0684V5H5.707L9.7209,9.0139l.9651-.5515.4961.8682-.7284.4161,2.8319,2.8319A6.99,6.99,0,0,0,8.0029,1Zm.4014,5.2339L6.8232,5.3306l.4961-.8682L8.9,5.3657ZM10.686,7.5376,9.105,6.6343l.4961-.8682,1.581.9033ZM11.8828,8.93l-.4961-.8682L11.4951,8l-.1084-.062.4961-.8682L13.5107,8Z" fill="#c6c6c6"/>
  <polygon points="11.387 8.062 11.495 8 11.387 7.938 11.635 7.504 10.934 7.104 10.686 7.538 9.105 6.634 9.353 6.2 8.652 5.8 8.404 6.234 6.823 5.331 7.071 4.896 6.371 4.496 6.123 4.93 6.003 4.862 6.003 5 5.707 5 9.721 9.014 10.686 8.462 10.934 8.896 11.635 8.496 11.387 8.062" fill="#f0f0f0"/>
  <path d="M6.0029,7.605h-1V5.791H5.084L2.7174,3.4244a6.99,6.99,0,0,0,9.8611,9.8611L6.0029,6.71Zm-1,.79h1V10.21h-1ZM8.4043,9.7661l.4961.8682-1.5811.9033-.4961-.8682ZM5.0029,12.8618V11h1v.1382l.12-.0684.4961.8682Z" fill="#c6c6c6"/>
  <polygon points="6.003 7.605 5.503 7.605 5.503 8.396 6.003 8.396 6.003 10.209 5.503 10.209 5.503 11 6.003 11 6.003 11.138 6.123 11.07 6.371 11.504 7.071 11.104 6.823 10.669 8.404 9.766 8.652 10.2 9.187 9.894 6.003 6.71 6.003 7.605" fill="#f0f0f0"/>
</svg>
