<?xml version="1.0" encoding="utf-8"?>
<!-- Generator: Adobe Illustrator 26.4.1, SVG Export Plug-In . SVG Version: 6.00 Build 0)  -->
<svg version="1.1" id="Layer_1" xmlns="http://www.w3.org/2000/svg" xmlns:xlink="http://www.w3.org/1999/xlink" x="0px" y="0px"
	 viewBox="0 0 20 18.75" style="enable-background:new 0 0 20 18.75;" xml:space="preserve">
<path d="M19,3.4H9.29L6.21,0.3C6.02,0.11,5.77,0,5.5,0H1C0.45,0,0,0.45,0,1v16.75c0,0.55,0.45,1,1,1h18c0.55,0,1-0.45,1-1V4.4
	C20,3.85,19.55,3.4,19,3.4z M2,2h3.08l1.39,1.4H2V2z M18,5.4v11.35H2V5.4H18z"/>
<path d="M3.64,13.08c-0.41,0.37-0.45,1-0.09,1.41c0.2,0.22,0.47,0.34,0.75,0.34c0.24,0,0.47-0.08,0.66-0.25l4.03-3.57l1.95,1.72
	c0.38,0.33,0.95,0.33,1.32,0l4.7-4.15c0.41-0.37,0.45-1,0.09-1.41c-0.37-0.41-1-0.45-1.41-0.09l-4.03,3.57L9.66,8.93
	c-0.38-0.33-0.95-0.33-1.32,0L3.64,13.08z"/>
</svg>
