<?xml version="1.0" encoding="UTF-8"?><svg id="Layer_1" xmlns="http://www.w3.org/2000/svg" viewBox="0 0 20 16"><path d="M16.67,4h-5.33c-.62,0-1.19,.18-1.69,.47L6.74,.29c-.21-.3-.62-.38-.93-.17-.3,.21-.38,.63-.17,.93l3,4.33c-.4,.55-.65,1.22-.65,1.96v2H1.84L5.04,3.93c.19-.32,.08-.73-.23-.91-.32-.19-.73-.08-.91,.23L.09,9.66c-.12,.21-.12,.46,0,.67,.12,.21,.34,.34,.58,.34h7.33v2c0,1.84,1.5,3.33,3.33,3.33h5.33c1.84,0,3.33-1.5,3.33-3.33V7.33c0-1.84-1.5-3.33-3.33-3.33Zm2,3.33v2h-4v-4h2c1.1,0,2,.9,2,2Zm-5.33-2v4h-4v-2c0-1.1,.9-2,2-2h2Zm-4,7.33v-2h4v4h-2c-1.1,0-2-.9-2-2Zm7.33,2h-2v-4h4v2c0,1.1-.9,2-2,2Z"/></svg>