<svg id="Layer_1" data-name="Layer 1" xmlns="http://www.w3.org/2000/svg" viewBox="0 0 48 48">
  <rect width="48" height="48" fill="#e5c04c"/>
  <g>
    <path d="M40.952,21.2c0-.009-.006-.017-.007-.026a.472.472,0,0,0-.05-.187.417.417,0,0,0-.037-.056.517.517,0,0,0-.109-.115c-.011-.008-.016-.022-.027-.029l-5.8-3.714.017-6.953h-.01a.39.39,0,0,0,.018-.067.5.5,0,0,0-.252-.435L27.723,5.64a.5.5,0,0,0-.494,0L20.2,9.606a.5.5,0,0,0-.255.435c0,.018.012.033.014.051a.34.34,0,0,0-.009.046l.007,4.6h0V19l-1.774-1.044a.5.5,0,0,0-.508,0L15.09,19.476l.508.861,2.331-1.375,2.331,1.372.507-.861-.04-.024h.229V17.942l5.981,3.7L26.93,23.1l-.8-.47-.507.861,1.848,1.088-1.381.809-.471.275.5.863.435-.253h0l.495-.29.906-.529,0,1.623,1,0,.006-2.5h0v0a.5.5,0,0,0-.251-.434l-.013,0-.772-.454L27.936,22l5.981,3.615.024,6.244-5.006-3.187-.011.018-.972,0L27.941,32.7l1,0,.008-2.838,5.227,3.326.013,0a.5.5,0,0,0,.249.075h.006a.5.5,0,0,0,.242-.063c.013-.008.019-.023.032-.032s.015,0,.022-.007l6-4.565a.506.506,0,0,0,.2-.4l.011-6.99V21.2ZM27.937,14.344l6-3.421-.015,5.908-6,3.651Zm-.463-7.695,5.962,3.407-5.972,3.406-6.006-3.418ZM20.95,10.905l5.987,3.407-.023,6.143-5.955-3.686Zm7.655,10.327,5.617-3.415,5.323,3.408L34.4,24.734Zm6.336,10.523-.024-6.163,5.034-3.434-.01,5.795Z" fill="#fff"/>
    <path d="M9.789,22.6,7.21,24.124h0l0,0a.472.472,0,0,0-.111.112c-.021.025-.052.041-.069.07a.5.5,0,0,0-.067.249v2.5h1V25.433l1.831,1.08.507-.862L9.864,25.4l0-.009-1.423-.832,1.85-1.091Z" fill="#fff"/>
    <rect x="11.154" y="20.97" width="3.078" height="1" transform="matrix(0.861, -0.508, 0.508, 0.861, -9.145, 9.422)" fill="#fff"/>
    <rect x="22.696" y="19.926" width="0.999" height="3.112" transform="matrix(0.507, -0.862, 0.862, 0.507, -7.083, 30.577)" fill="#fff"/>
    <polygon points="20.267 28.788 17.977 30.125 16.119 29.04 16.099 29.074 15.598 28.778 15.09 29.64 17.481 31.049 17.481 33.222 17.544 33.222 18.481 33.222 18.544 33.222 18.544 30.971 20.391 29.889 20.384 29.877 20.771 29.651 20.267 28.788" fill="#fff"/>
    <polygon points="10.753 27.062 11.123 27.278 11.114 27.294 13.765 28.857 13.781 28.83 14.226 29.091 14.731 28.228 11.258 26.198 10.753 27.062" fill="#fff"/>
    <rect x="6.958" y="28.672" width="1" height="4.037" fill="#fff"/>
    <path d="M7.958,34.325h-1v2.5a.5.5,0,0,0,.248.432l2.158,1.261.5-.864L7.958,36.538Z" fill="#fff"/>
    <rect x="12.242" y="37.901" width="1" height="4.022" transform="translate(-28.146 30.774) rotate(-59.696)" fill="#fff"/>
    <polygon points="24.284 26.447 24.282 26.444 21.605 28.007 21.61 28.014 21.256 28.222 21.762 29.085 25.188 27.076 24.683 26.213 24.284 26.447" fill="#fff"/>
    <polygon points="18.481 38.874 18.544 38.874 18.544 34.837 17.544 34.837 17.544 34.839 17.481 34.839 17.481 38.882 18.481 38.882 18.481 38.874" fill="#fff"/>
    <path d="M19.877,41.294l-1.333.79v-1.6h-1V40.5h-.063V42.1l-1.361-.8-.505.863,2.06,1.2c.021.018.034.044.059.059a.5.5,0,0,0,.247.065c.009,0,.016-.006.024-.006l.014,0a.553.553,0,0,0,.276-.073c.03-.017.046-.048.071-.071l2.021-1.2Z" fill="#fff"/>
    <rect x="21.221" y="39.402" width="3.97" height="0.999" transform="translate(-17.11 17.423) rotate(-30.676)" fill="#fff"/>
    <path d="M27.932,36.521,26.025,37.65l.51.86,2.151-1.275a.5.5,0,0,0,.245-.428l.007-2.5-1,0Z" fill="#fff"/>
  </g>
</svg>
