<?xml version="1.0" encoding="utf-8"?>
<!-- Generator: Adobe Illustrator 25.1.0, SVG Export Plug-In . SVG Version: 6.00 Build 0)  -->
<svg version="1.1" id="Layer_1" xmlns="http://www.w3.org/2000/svg" xmlns:xlink="http://www.w3.org/1999/xlink" x="0px" y="0px"
	 viewBox="0 0 24 24" style="enable-background:new 0 0 24 24;" xml:space="preserve">
<style type="text/css">
	.st0{fill:#E5C04C;}
	.st1{fill:#FFFFFF;}
</style>
<rect y="0" class="st0" width="24" height="24"/>
<g>
	<path class="st1" d="M21,10.6C21,10.6,21,10.6,21,10.6c0-0.1,0-0.2-0.1-0.2c0,0,0,0,0-0.1c0,0-0.1-0.1-0.1-0.1c0,0,0,0,0,0L18,8.5
		V5c0-0.1,0-0.2-0.1-0.3c0,0,0-0.1,0-0.1c0,0,0,0,0,0c0,0-0.1-0.1-0.1-0.1l-3.5-2c-0.2-0.1-0.3-0.1-0.5,0l-3.4,2l0,0
		C10.1,4.7,10,4.8,10,5v3.4v0v1.8L8.7,9.5c-0.2-0.1-0.3-0.1-0.5,0l-2.2,1.3l0.5,0.9l1.9-1.1l1.9,1.1l0.4-0.6H11V9.4l2.4,1.5v1.3
		l-1.8-1.1L11.1,12l1.4,0.8l-0.1,0l-1.4,0.8l0.5,0.9l0,0l0,0l1.1-0.6l0.3-0.2v1.6h1v-0.7l3.2,2.2c0,0,0,0,0,0c0.1,0,0.2,0.1,0.3,0.1
		l0,0c0.1,0,0.2,0,0.2-0.1c0,0,0,0,0,0s0,0,0,0l2.9-2.3c0.1-0.1,0.2-0.2,0.2-0.4L21,10.6L21,10.6L21,10.6z M17.4,12L15,10.6l2.3-1.4
		l2.2,1.4L17.4,12z M14.4,9.8l0-2.5L17,5.9v2.4L14.4,9.8z M14,3.6L16.5,5L14,6.4L11.5,5L14,3.6z M11,7.7V5.8l2.4,1.4l0,2.5L11,8.2
		V7.7z M14.4,13.7v-2.2L17,13l0,2.5L14.4,13.7z M18,15.4l0-2.5l2-1.3v2.3L18,15.4z"/>
	<path class="st1" d="M5.9,12l-0.5-0.9l-2.2,1.3C3.1,12.5,3,12.6,3,12.8v2.5h1v-1.6l1.4,0.8v0l0,0L5.7,14l0.2-0.4l0,0v0l-1.4-0.8
		L5.9,12z"/>
	<path class="st1" d="M4,16.1H3v2.5c0,0.2,0.1,0.3,0.3,0.4l2.2,1.2l0.5-0.9L4,18.3V16.1z"/>
	<polygon class="st1" points="10.4,14 10.4,14 8.5,15.1 6.6,14 6.6,14 6.6,14 6.1,14.9 8,16 8,18.2 8,18.2 9,18.2 9,18.2 9,16 
		10.9,14.9 10.4,14 	"/>
	<path class="st1" d="M10.4,19.7L9,20.5v-1.6H8l0,0h0v1.6l-1.4-0.8l-0.5,0.9l2.1,1.2c0,0,0,0,0,0c0.1,0,0.2,0.1,0.3,0.1h0l0,0
		c0,0,0.1,0,0.1,0c0.1,0,0.1,0,0.1,0l0,0c0,0,0,0,0,0s0,0,0,0l2.1-1.2L10.4,19.7z"/>
	<path class="st1" d="M13,18.3l-1.9,1.1l0.5,0.9l2.2-1.3c0.2-0.1,0.2-0.3,0.2-0.4l0-2.5h-1L13,18.3z"/>
</g>
<polygon class="st1" points="10.4,11.6 10.7,11.8 11.2,10.9 9.7,10.1 "/>
</svg>
