<svg id="Layer_1" data-name="Layer 1" xmlns="http://www.w3.org/2000/svg" xmlns:xlink="http://www.w3.org/1999/xlink" viewBox="0 0 48 48">
    <linearGradient id="paper_gradient" data-name="paper gradient" x1="13.4997" y1="2.0655" x2="33.5003" y2="22.0661" gradientUnits="userSpaceOnUse">
      <stop offset="0" stop-color="#fff"/>
      <stop offset="0.2214" stop-color="#f8f8f8"/>
      <stop offset="0.5415" stop-color="#e5e5e5"/>
      <stop offset="0.92" stop-color="#c6c6c6"/>
      <stop offset="1" stop-color="#bebebe"/>
    </linearGradient>
    <linearGradient id="front_-45" data-name="front -45" x1="-0.1467" y1="15.7119" x2="27.1467" y2="43.0053" gradientUnits="userSpaceOnUse">
      <stop offset="0" stop-color="#f2f2f2"/>
      <stop offset="0.5" stop-color="#ccc"/>
      <stop offset="0.6296" stop-color="#c7c7c7"/>
      <stop offset="0.7792" stop-color="#b9b9b9"/>
      <stop offset="0.9383" stop-color="#a2a2a2"/>
      <stop offset="0.99" stop-color="#999"/>
    </linearGradient>
    <linearGradient id="paper_gradient-2" x1="5.5" y1="29.4953" x2="21.5" y2="29.4953" xlink:href="#paper_gradient"/>
    <linearGradient id="paper_gradient-3" x1="31.25" y1="21.75" x2="43.75" y2="34.25" xlink:href="#paper_gradient"/>
    <linearGradient id="Dark_Blue_Grad_3" data-name="Dark Blue Grad 3" x1="35.75" y1="28.25" x2="45.25" y2="37.75" gradientUnits="userSpaceOnUse">
      <stop offset="0" stop-color="#73b3c6"/>
      <stop offset="0.1774" stop-color="#6aadc1"/>
      <stop offset="0.4638" stop-color="#529db3"/>
      <stop offset="0.8215" stop-color="#2c839c"/>
      <stop offset="1" stop-color="#16748f"/>
    </linearGradient>
    <linearGradient id="Dark_Blue_Grad_3-2" x1="35.75" y1="33.25" x2="45.25" y2="42.75" xlink:href="#Dark_Blue_Grad_3"/>
    <linearGradient id="Dark_Blue_Grad_3-3" x1="35.75" y1="38.25" x2="45.25" y2="47.75" xlink:href="#Dark_Blue_Grad_3"/>
  <polygon points="23.5 23.632 43.5 12.066 43.5 35.087 23.5 46.652 23.5 23.632" fill="#888"/>
  <polygon points="3.5 12.065 23.466 0.5 43.5 12.066 23.5 23.632 3.5 12.065" fill="url(#paper_gradient)"/>
  <polygon points="23.5 23.632 23.5 46.652 3.5 35.085 3.5 12.065 23.5 23.632" fill="url(#front_-45)"/>
  <line x1="23.5" y1="23.6317" x2="23.5" y2="46.6519" fill="none" stroke="#6e6e6e" stroke-linejoin="round"/>
  <polyline points="43.5 12.066 23.5 23.632 3.5 12.065" fill="none" stroke="#6e6e6e" stroke-linejoin="round"/>
  <rect width="48" height="48" fill="none"/>
  <rect width="48" height="48" fill="none"/>
  <rect width="48" height="48" fill="none"/>
  <rect width="48" height="48" fill="none"/>
  <rect width="48" height="48" fill="none"/>
  <line x1="33.5038" y1="6.2077" x2="13.5038" y2="17.773" fill="none" stroke="#6e6e6e" stroke-linejoin="round"/>
  <polygon points="23.466 0.5 3.5 12.065 3.5 35.085 23.5 46.652 43.5 35.087 43.5 12.066 23.466 0.5" fill="none" stroke="#464646" stroke-linejoin="round"/>
  <polygon points="21.5 39.798 21.5 28.412 5.5 19.193 5.5 30.579 21.5 39.798" stroke="#6e6e6e" stroke-linejoin="round" fill="url(#paper_gradient-2)"/>
  <line x1="7.5" y1="22.3454" x2="7.5" y2="29.7607" fill="none" stroke="#6e6e6e" stroke-miterlimit="10"/>
  <line x1="9.5" y1="23.4977" x2="9.5" y2="28.9131" fill="none" stroke="#6e6e6e" stroke-miterlimit="10"/>
  <line x1="12.5" y1="25.2263" x2="12.5" y2="32.5" fill="none" stroke="#6e6e6e" stroke-miterlimit="10"/>
  <line x1="14.5" y1="26.3787" x2="14.5" y2="31.794" fill="none" stroke="#6e6e6e" stroke-miterlimit="10"/>
  <line x1="16.5" y1="27.531" x2="16.5" y2="32.9464" fill="none" stroke="#6e6e6e" stroke-miterlimit="10"/>
  <line x1="18.5" y1="28.6768" x2="18.5" y2="36.0988" fill="none" stroke="#6e6e6e" stroke-miterlimit="10"/>
  <rect x="27.5" y="25.5" width="20" height="5" stroke="#464646" stroke-miterlimit="10" fill="url(#paper_gradient-3)"/>
  <line x1="29" y1="27.5" x2="41" y2="27.5" fill="none" stroke="#6e6e6e" stroke-miterlimit="10"/>
  <rect x="33.5" y="30.5" width="14" height="5" stroke="#464646" stroke-miterlimit="10" fill="url(#Dark_Blue_Grad_3)"/>
  <line x1="35" y1="32.5" x2="44" y2="32.5" fill="none" stroke="#fff" stroke-miterlimit="10"/>
  <rect x="33.5" y="35.5" width="14" height="5" stroke="#464646" stroke-miterlimit="10" fill="url(#Dark_Blue_Grad_3-2)"/>
  <line x1="35" y1="37.5" x2="43" y2="37.5" fill="none" stroke="#fff" stroke-miterlimit="10"/>
  <rect x="33.5" y="40.5" width="14" height="5" stroke="#464646" stroke-miterlimit="10" fill="url(#Dark_Blue_Grad_3-3)"/>
  <line x1="35" y1="42.5" x2="45" y2="42.5" fill="none" stroke="#fff" stroke-miterlimit="10"/>
</svg>
