<svg id="Layer_1" data-name="Layer 1" xmlns="http://www.w3.org/2000/svg" xmlns:xlink="http://www.w3.org/1999/xlink" viewBox="0 0 48 48">
<polygon style="fill:#888888;" points="18.4,18.5 34,9.4 34,27.4 18.4,36.4 "/>
<linearGradient id="SVGID_1_" gradientUnits="userSpaceOnUse" x1="10.5467" y1="48.3865" x2="26.1721" y2="32.7611" gradientTransform="matrix(1 0 0 -1 0 50)">
	<stop  offset="0" style="stop-color:#FFFFFF"/>
	<stop  offset="0.2214" style="stop-color:#F8F8F8"/>
	<stop  offset="0.5415" style="stop-color:#E5E5E5"/>
	<stop  offset="0.92" style="stop-color:#C6C6C6"/>
	<stop  offset="1" style="stop-color:#BEBEBE"/>
</linearGradient>
<polygon style="fill:url(#SVGID_1_);" points="2.7,9.4 18.3,0.4 34,9.4 18.4,18.5 "/>
<linearGradient id="SVGID_2_" gradientUnits="userSpaceOnUse" x1="-0.1146" y1="37.7252" x2="21.2084" y2="16.4021" gradientTransform="matrix(1 0 0 -1 0 50)">
	<stop  offset="0" style="stop-color:#F2F2F2"/>
	<stop  offset="0.5" style="stop-color:#CCCCCC"/>
	<stop  offset="0.6296" style="stop-color:#C7C7C7"/>
	<stop  offset="0.7792" style="stop-color:#B9B9B9"/>
	<stop  offset="0.9383" style="stop-color:#A2A2A2"/>
	<stop  offset="0.99" style="stop-color:#999999"/>
</linearGradient>
<polygon style="fill:url(#SVGID_2_);" points="18.4,18.5 18.4,36.4 2.7,27.4 2.7,9.4 "/>
<line style="fill:none;stroke:#6E6E6E;stroke-linejoin:round;" x1="18.4" y1="18.5" x2="18.4" y2="36.4"/>
<polyline style="fill:none;stroke:#6E6E6E;stroke-linejoin:round;" points="34,9.4 18.4,18.5 2.7,9.4 "/>
<rect style="fill:none;" width="37.5" height="37.5"/>
<rect style="fill:none;" width="37.5" height="37.5"/>
<rect style="fill:none;" width="37.5" height="37.5"/>
<rect style="fill:none;" width="37.5" height="37.5"/>
<line style="fill:none;stroke:#6E6E6E;stroke-linejoin:round;" x1="26.2" y1="4.8" x2="10.5" y2="13.9"/>
<polygon style="fill:none;stroke:#464646;stroke-linejoin:round;" points="18.3,0.4 2.7,9.4 2.7,27.4 18.4,36.4 34,27.4 34,9.4 "/>
<linearGradient id="SVGID_3_" gradientUnits="userSpaceOnUse" x1="4.2969" y1="26.9566" x2="16.7969" y2="26.9566" gradientTransform="matrix(1 0 0 -1 0 50)">
	<stop  offset="0" style="stop-color:#FFFFFF"/>
	<stop  offset="0.2214" style="stop-color:#F8F8F8"/>
	<stop  offset="0.5415" style="stop-color:#E5E5E5"/>
	<stop  offset="0.92" style="stop-color:#C6C6C6"/>
	<stop  offset="1" style="stop-color:#BEBEBE"/>
</linearGradient>
<polygon style="fill:url(#SVGID_3_);stroke:#6E6E6E;stroke-linejoin:round;" points="16.8,31.1 16.8,22.2 4.3,15 4.3,23.9 "/>
<line style="fill:none;stroke:#6E6E6E;stroke-miterlimit:10;" x1="5.9" y1="17.5" x2="5.9" y2="23.3"/>
<line style="fill:none;stroke:#6E6E6E;stroke-miterlimit:10;" x1="7.4" y1="18.4" x2="7.4" y2="22.6"/>
<line style="fill:none;stroke:#6E6E6E;stroke-miterlimit:10;" x1="9.8" y1="19.7" x2="9.8" y2="25.4"/>
<line style="fill:none;stroke:#6E6E6E;stroke-miterlimit:10;" x1="11.3" y1="20.6" x2="11.3" y2="24.8"/>
<line style="fill:none;stroke:#6E6E6E;stroke-miterlimit:10;" x1="12.9" y1="21.5" x2="12.9" y2="25.7"/>
<line style="fill:none;stroke:#6E6E6E;stroke-miterlimit:10;" x1="14.5" y1="22.4" x2="14.5" y2="28.2"/>
<line style="fill:none;stroke:#FFFFFF;stroke-miterlimit:10;" x1="27.3" y1="33.2" x2="35.2" y2="33.2"/>
<g>
	
		<linearGradient id="SVGID_4_" gradientUnits="userSpaceOnUse" x1="25.3594" y1="766.7586" x2="48.8594" y2="790.2586" gradientTransform="matrix(1 0 0 1 0 -744)">
		<stop  offset="0" style="stop-color:#FFFFFF"/>
		<stop  offset="0.232" style="stop-color:#FAFAFA"/>
		<stop  offset="0.496" style="stop-color:#EDEDED"/>
		<stop  offset="0.775" style="stop-color:#D6D6D6"/>
		<stop  offset="1" style="stop-color:#BEBEBE"/>
	</linearGradient>
	<rect x="26.6" y="21.5" style="fill:url(#SVGID_4_);stroke:#464646;stroke-miterlimit:10;" width="21" height="26"/>
	<line style="fill:none;stroke:#6E6E6E;" x1="38.1" y1="26.5" x2="44.1" y2="26.5"/>
	<line style="fill:none;stroke:#6E6E6E;" x1="38.1" y1="29.5" x2="44.1" y2="29.5"/>
	<line style="fill:none;stroke:#6E6E6E;" x1="30.1" y1="32.5" x2="44.1" y2="32.5"/>
	<line style="fill:none;stroke:#6E6E6E;" x1="30.1" y1="35.5" x2="44.1" y2="35.5"/>
	<line style="fill:none;stroke:#6E6E6E;" x1="30.1" y1="38.5" x2="44.1" y2="38.5"/>
	<line style="fill:none;stroke:#6E6E6E;" x1="30.1" y1="41.5" x2="44.1" y2="41.5"/>
	<line style="fill:none;stroke:#6E6E6E;" x1="30.1" y1="44.5" x2="44.1" y2="44.5"/>
	
		<linearGradient id="SVGID_5_" gradientUnits="userSpaceOnUse" x1="30.6094" y1="25.4914" x2="35.6094" y2="20.4914" gradientTransform="matrix(1 0 0 -1 0 50)">
		<stop  offset="0" style="stop-color:#73B4C8"/>
		<stop  offset="0.175" style="stop-color:#6AAEC3"/>
		<stop  offset="0.457" style="stop-color:#529EB5"/>
		<stop  offset="0.809" style="stop-color:#2C839F"/>
		<stop  offset="1" style="stop-color:#147391"/>
	</linearGradient>
	<rect x="30.6" y="24.5" style="fill:url(#SVGID_5_);stroke:#147391;stroke-miterlimit:10;" width="5" height="5"/>
</g>
</svg>
