<?xml version="1.0" encoding="UTF-8"?><svg id="Layer_1" xmlns="http://www.w3.org/2000/svg" viewBox="0 0 40 48"><defs><style>.cls-1{fill:#797979;}.cls-2{fill:#fff;fill-rule:evenodd;}.cls-3{fill:#cfcfcf;}.cls-4{fill:#eaeaea;}.cls-5{fill:#454545;}</style></defs><g><rect class="cls-4" x="1" y="1" width="30" height="38"/><path class="cls-3" d="M30,2V38H2V2H30m2-2H0V40H32V0h0Z"/></g><g><path class="cls-5" d="M6.5,13H25.5c.83,0,1.5-.67,1.5-1.5s-.67-1.5-1.5-1.5H6.5c-.83,0-1.5,.67-1.5,1.5s.67,1.5,1.5,1.5Z"/><path class="cls-5" d="M25.5,18H6.5c-.83,0-1.5,.67-1.5,1.5s.67,1.5,1.5,1.5H25.5c.83,0,1.5-.67,1.5-1.5s-.67-1.5-1.5-1.5Z"/><path class="cls-5" d="M25.5,26H6.5c-.83,0-1.5,.67-1.5,1.5s.67,1.5,1.5,1.5H25.5c.83,0,1.5-.67,1.5-1.5s-.67-1.5-1.5-1.5Z"/></g><circle class="cls-1" cx="31" cy="39" r="9"/><path class="cls-2" d="M35.6,37.59l-4.95,4.95c-.59,.59-1.54,.59-2.12,0l-2.12-2.12c-.59-.59-.59-1.54,0-2.12,.59-.59,1.54-.59,2.12,0l1.06,1.06,3.89-3.89c.59-.59,1.54-.59,2.12,0,.59,.59,.59,1.54,0,2.12Z"/></svg>