<?xml version="1.0" encoding="UTF-8"?><svg id="Layer_1" xmlns="http://www.w3.org/2000/svg" viewBox="0 0 48 46"><defs><style>.cls-1{fill:#797979;}.cls-2{fill:#fff;}.cls-3{fill:#cfcfcf;}.cls-4{fill:#eaeaea;}.cls-5{fill:#454545;}</style></defs><g><polygon class="cls-4" points="7 21 1 21 1 1 31 1 31 21 10.59 21 7 24.59 7 21"/><path class="cls-3" d="M30,2V20H10.17l-.59,.59-1.59,1.59v-2.17H2V2H30m2-2H0V22H6v5l5-5h21V0h0Z"/></g><path class="cls-5" d="M21.44,9.27c0,1.34-.24,2.47-.71,3.38s-1.18,1.57-2.1,2l2.75,3.07h-3.1l-2.09-2.56h-.18c-1.75,0-3.09-.51-4.03-1.52s-1.41-2.47-1.41-4.38,.47-3.35,1.41-4.36,2.29-1.5,4.04-1.5,3.1,.5,4.03,1.52,1.39,2.46,1.39,4.36Zm-8.34,0c0,1.28,.24,2.24,.73,2.88s1.21,.97,2.17,.97c1.93,0,2.9-1.28,2.9-3.85s-.96-3.86-2.88-3.86c-.96,0-1.69,.32-2.18,.97s-.73,1.61-.73,2.89Z"/><polygon class="cls-1" points="48 19 16 19 16 41 37 41 42 46 42 41 48 41 48 19"/><path class="cls-2" d="M34.91,35l-.83-2.72h-4.16l-.83,2.72h-2.61l4.03-11.47h2.96l4.05,11.47h-2.61Zm-1.41-4.75c-.77-2.46-1.2-3.86-1.29-4.18s-.17-.58-.21-.77c-.17,.67-.66,2.32-1.48,4.95h2.98Z"/></svg>