<?xml version="1.0" encoding="UTF-8" standalone="no"?>
<svg
   version="1.1"
   id="Layer_1"
   x="0px"
   y="0px"
   viewBox="0 0 48 48"
   enable-background="new 0 0 48 48"
   xml:space="preserve"
   sodipodi:docname="typePerson48_custom.svg"
   inkscape:version="1.2 (dc2aedaf03, 2022-05-15)"
   xmlns:inkscape="http://www.inkscape.org/namespaces/inkscape"
   xmlns:sodipodi="http://sodipodi.sourceforge.net/DTD/sodipodi-0.dtd"
   xmlns="http://www.w3.org/2000/svg"
   xmlns:svg="http://www.w3.org/2000/svg"><defs
   id="defs17680" /><sodipodi:namedview
   id="namedview17678"
   pagecolor="#505050"
   bordercolor="#ffffff"
   borderopacity="1"
   inkscape:showpageshadow="0"
   inkscape:pageopacity="0"
   inkscape:pagecheckerboard="1"
   inkscape:deskcolor="#505050"
   showgrid="false"
   inkscape:zoom="20.875"
   inkscape:cx="23.784431"
   inkscape:cy="24"
   inkscape:window-width="2560"
   inkscape:window-height="1377"
   inkscape:window-x="1912"
   inkscape:window-y="-8"
   inkscape:window-maximized="1"
   inkscape:current-layer="Layer_1" />
<linearGradient
   id="SVGID_1_"
   gradientUnits="userSpaceOnUse"
   x1="17.558"
   y1="4.0913"
   x2="29.442"
   y2="15.9752">
	<stop
   offset="0"
   style="stop-color:#FFFFFF"
   id="stop17653" />
	<stop
   offset="1"
   style="stop-color:#BEBEBE"
   id="stop17655" />
</linearGradient>
<path
   fill="url(#SVGID_1_)"
   stroke="#464646"
   stroke-miterlimit="10"
   d="M31.5,9.4c0,4.3-3.6,10.1-8,10.1s-8-5.8-8-10.1  s3.6-7.9,8-7.9S31.5,5,31.5,9.4z"
   id="path17658" />
<linearGradient
   id="SVGID_2_"
   gradientUnits="userSpaceOnUse"
   x1="11.0354"
   y1="25.1063"
   x2="35.9646"
   y2="50.0354">
	
	
	<stop
   offset="0"
   style="stop-color:#c65e7f;stop-opacity:1;"
   id="stop17664" />
	<stop
   offset="0.44999999"
   style="stop-color:#ae1b49;stop-opacity:1;"
   id="stop17666" />
	<stop
   offset="1"
   style="stop-color:#a50034;stop-opacity:1;"
   id="stop17668" />
</linearGradient>
<path
   fill="url(#SVGID_2_)"
   stroke="#464646"
   stroke-miterlimit="10"
   d="M38.5,47.5V31.3c0-3.8-2.4-7-6-8.8c-2.5,1.8-5.6,2.9-9,2.9  s-6.5-1.1-9-2.9c-3.6,1.7-6,5-6,8.8v16.2H38.5z"
   id="path17671" />
<line
   fill="none"
   stroke="#147391"
   stroke-linejoin="round"
   stroke-miterlimit="10"
   x1="14.5"
   y1="47"
   x2="14.5"
   y2="35"
   id="line17673"
   style="stroke:#74233c;stroke-opacity:1" />
<line
   fill="none"
   stroke="#147391"
   stroke-linejoin="round"
   stroke-miterlimit="10"
   x1="32.5"
   y1="47"
   x2="32.5"
   y2="35"
   id="line17675"
   style="stroke:#74233c;stroke-opacity:1" />
</svg>
