<?xml version="1.0" encoding="UTF-8"?><svg id="Layer_1" xmlns="http://www.w3.org/2000/svg" viewBox="0 0 43.83 47.92"><defs><style>.cls-1{fill:#797979;}.cls-2{fill:#cfcfcf;}.cls-3{fill:#eaeaea;}.cls-4{fill:#454545;}</style></defs><polygon class="cls-3" points="12.41 23 1 23 1 1 31 1 31 23 16 23 16 26.59 12.41 23"/><path class="cls-2" d="M30,2V22H15v2.17l-1.59-1.59-.59-.59H2V2H30m2-2H0V24H12l5,5v-5h15V0h0Z"/><path class="cls-1" d="M37.83,32.92l-8-1-8,1-6,6,1,9h26l1-9-6-6Zm-3-10v-4l-2-2-3-1-3,1-2,2v4l1,7,4,2,4-2,1-7Z"/><path class="cls-4" d="M20.92,10.27c0,1.34-.24,2.47-.71,3.38s-1.18,1.57-2.1,2l2.75,3.07h-3.1l-2.09-2.56h-.18c-1.75,0-3.09-.51-4.03-1.52s-1.41-2.47-1.41-4.38,.47-3.35,1.41-4.36,2.29-1.5,4.04-1.5,3.1,.5,4.03,1.52,1.39,2.46,1.39,4.36Zm-8.34,0c0,1.28,.24,2.24,.73,2.88s1.21,.97,2.17,.97c1.93,0,2.9-1.28,2.9-3.85s-.96-3.86-2.88-3.86c-.96,0-1.69,.32-2.18,.97s-.73,1.61-.73,2.89Z"/></svg>