<?xml version="1.0" encoding="UTF-8"?><svg id="Layer_1" xmlns="http://www.w3.org/2000/svg" viewBox="0 0 40 47"><defs><style>.cls-1{fill:#797979;}.cls-2{fill:#cfcfcf;}.cls-3{fill:#eaeaea;}.cls-4{fill:#454545;}</style></defs><rect class="cls-1" x="8" width="32" height="40"/><g><rect class="cls-3" x="1" y="8" width="30" height="38"/><path class="cls-2" d="M30,9V45H2V9H30m2-2H0V47H32V7h0Z"/></g><g><path class="cls-4" d="M6.5,20H25.5c.83,0,1.5-.67,1.5-1.5s-.67-1.5-1.5-1.5H6.5c-.83,0-1.5,.67-1.5,1.5s.67,1.5,1.5,1.5Z"/><path class="cls-4" d="M25.5,25H6.5c-.83,0-1.5,.67-1.5,1.5s.67,1.5,1.5,1.5H25.5c.83,0,1.5-.67,1.5-1.5s-.67-1.5-1.5-1.5Z"/><path class="cls-4" d="M25.5,33H6.5c-.83,0-1.5,.67-1.5,1.5s.67,1.5,1.5,1.5H25.5c.83,0,1.5-.67,1.5-1.5s-.67-1.5-1.5-1.5Z"/></g></svg>